<svg xmlns="http://www.w3.org/2000/svg" xmlns:xlink="http://www.w3.org/1999/xlink" width="840" height="581.04"><rect width="840" height="581.04" rx="5" ry="5" class="a"></rect><svg y="0%" x="0%"><circle cx="20" cy="20" r="6" class="b"></circle><circle cx="40" cy="20" r="6" class="c"></circle><circle cx="60" cy="20" r="6" class="d"></circle></svg><svg height="521.04" viewBox="0 0 80 52.104" width="800" x="15" xmlns="http://www.w3.org/2000/svg" xmlns:xlink="http://www.w3.org/1999/xlink" y="50"><style>.a{fill:rgb(40,45,53)}.b{fill:#ff5f58}.c{fill:#ffbd2e}.d{fill:#18c132}.e{font-family:'Fira Code',Monaco,Consolas,Menlo,'Bitstream Vera Sans Mono','Powerline Symbols',monospace}.f{fill:rgb(185,192,203);white-space:pre}.g{fill:rgb(38,38,38)}.h{fill:rgb(185,191,202);white-space:pre}.i{fill:rgb(135,95,95)}.j{fill:rgb(0,175,175)}.k{fill:rgb(0,135,175)}.l{white-space:pre}.m{fill:rgb(215,175,175)}.n{fill:rgb(135,215,255)}.o{fill:rgb(255,215,175)}.p{fill:transparent}.q{fill:rgb(111,118,131)}.s{animation-duration:8.33102583885193s;animation-iteration-count:infinite;animation-name:r;animation-timing-function:steps(1,end)}@keyframes r{0%{transform:translateX(-0px)}0%{transform:translateX(-80px)}0.4%{transform:translateX(-160px)}1.1%{transform:translateX(-240px)}1.6%{transform:translateX(-320px)}2.1%{transform:translateX(-400px)}2.6%{transform:translateX(-480px)}3.3%{transform:translateX(-560px)}3.9%{transform:translateX(-640px)}4.7%{transform:translateX(-720px)}5.1%{transform:translateX(-800px)}5.5%{transform:translateX(-880px)}6.4%{transform:translateX(-960px)}6.9%{transform:translateX(-1040px)}7.7%{transform:translateX(-1120px)}8.3%{transform:translateX(-1200px)}9.1%{transform:translateX(-1280px)}10%{transform:translateX(-1360px)}10%{transform:translateX(-1440px)}22.2%{transform:translateX(-1520px)}23%{transform:translateX(-1600px)}23.6%{transform:translateX(-1680px)}24.2%{transform:translateX(-1760px)}24.8%{transform:translateX(-1840px)}25.4%{transform:translateX(-1920px)}26.1%{transform:translateX(-2000px)}26.4%{transform:translateX(-2080px)}27%{transform:translateX(-2160px)}27.8%{transform:translateX(-2240px)}28.2%{transform:translateX(-2320px)}29.1%{transform:translateX(-2400px)}29.5%{transform:translateX(-2480px)}29.8%{transform:translateX(-2560px)}30.2%{transform:translateX(-2640px)}30.8%{transform:translateX(-2720px)}31.3%{transform:translateX(-2800px)}32%{transform:translateX(-2880px)}32.6%{transform:translateX(-2960px)}33.1%{transform:translateX(-3040px)}33.8%{transform:translateX(-3120px)}34.4%{transform:translateX(-3200px)}34.8%{transform:translateX(-3280px)}35.4%{transform:translateX(-3360px)}36.3%{transform:translateX(-3440px)}37.1%{transform:translateX(-3520px)}37.5%{transform:translateX(-3600px)}38%{transform:translateX(-3680px)}38.8%{transform:translateX(-3760px)}39.5%{transform:translateX(-3840px)}39.6%{transform:translateX(-3920px)}39.9%{transform:translateX(-4000px)}100%{transform:translateX(-4080px)}}</style><g font-family="&#x27;Fira Code&#x27;,Monaco,Consolas,Menlo,&#x27;Bitstream Vera Sans Mono&#x27;,&#x27;Powerline Symbols&#x27;,monospace" font-size="1.67" class="e"><defs><symbol id="1"><text x="0" y="1.67" class="f">library(ghibli)</text></symbol><symbol id="2"><text x="0" y="1.67" class="f">&gt;</text></symbol><symbol id="3"><text x="0" y="1.67" class="f">&gt;</text><text x="2.004" y="1.67" class="f">ghibli_palettes$MarnieMedium1</text></symbol><symbol id="4"><text x="0" y="1.67" class="f">&lt;colors&gt;</text></symbol><symbol id="5"><rect height="2.171" width="9" x="0" y="0" class="g"></rect><text x="0" y="1.67" class="h">#28231DFF</text><rect height="2.171" width="9" x="10.02" y="0" class="i"></rect><text x="10.02" y="1.67" class="h">#5E2D30FF</text><rect height="2.171" width="9" x="20.04" y="0" class="j"></rect><text x="20.04" y="1.67" class="h">#008E90FF</text><rect height="2.171" width="9" x="30.059999999999995" y="0" class="k"></rect><text x="30.059999999999995" y="1.67" class="l">#1C77A3FF</text><rect height="2.171" width="9" x="40.08" y="0" class="m"></rect><text x="40.08" y="1.67" class="l">#C5A387FF</text><rect height="2.171" width="9" x="50.1" y="0" class="n"></rect><text x="50.1" y="1.67" class="l">#67B8D6FF</text><rect height="2.171" width="9" x="60.11999999999999" y="0" class="o"></rect><text x="60.11999999999999" y="1.67" class="l">#E9D097FF</text></symbol><symbol id="a"><rect height="25" width="80" x="0" y="0" class="p"></rect></symbol><symbol id="b"><rect height="2.171" width="1.1022" class="q"></rect></symbol></defs><rect height="52.104" width="80" class="a"></rect><g class="s"><svg x="0" y="0" width="4160"><svg x="0"><use xlink:href="#a"></use><use xlink:href="#b" x="-0.0040000000000000036" y="0"></use></svg><svg x="80"><use xlink:href="#a"></use><use xlink:href="#b" x="0.996" y="0"></use><text x="0" y="1.67" class="f">l</text></svg><svg x="160"><use xlink:href="#a"></use><use xlink:href="#b" x="1.996" y="0"></use><text x="0" y="1.67" class="f">li</text></svg><svg x="240"><use xlink:href="#a"></use><use xlink:href="#b" x="2.996" y="0"></use><text x="0" y="1.67" class="f">lib</text></svg><svg x="320"><use xlink:href="#a"></use><use xlink:href="#b" x="3.996" y="0"></use><text x="0" y="1.67" class="f">libr</text></svg><svg x="400"><use xlink:href="#a"></use><use xlink:href="#b" x="4.996" y="0"></use><text x="0" y="1.67" class="f">libra</text></svg><svg x="480"><use xlink:href="#a"></use><use xlink:href="#b" x="5.996" y="0"></use><text x="0" y="1.67" class="f">librar</text></svg><svg x="560"><use xlink:href="#a"></use><use xlink:href="#b" x="6.996" y="0"></use><text x="0" y="1.67" class="f">library</text></svg><svg x="640"><use xlink:href="#a"></use><use xlink:href="#b" x="7.996" y="0"></use><text x="0" y="1.67" class="f">library(</text></svg><svg x="720"><use xlink:href="#a"></use><use xlink:href="#b" x="8.996" y="0"></use><text x="0" y="1.67" class="f">library(g</text></svg><svg x="800"><use xlink:href="#a"></use><use xlink:href="#b" x="9.996" y="0"></use><text x="0" y="1.67" class="f">library(gh</text></svg><svg x="880"><use xlink:href="#a"></use><use xlink:href="#b" x="10.996" y="0"></use><text x="0" y="1.67" class="f">library(ghi</text></svg><svg x="960"><use xlink:href="#a"></use><use xlink:href="#b" x="11.996" y="0"></use><text x="0" y="1.67" class="f">library(ghib</text></svg><svg x="1040"><use xlink:href="#a"></use><use xlink:href="#b" x="12.996" y="0"></use><text x="0" y="1.67" class="f">library(ghibl</text></svg><svg x="1120"><use xlink:href="#a"></use><use xlink:href="#b" x="13.996" y="0"></use><text x="0" y="1.67" class="f">library(ghibli</text></svg><svg x="1200"><use xlink:href="#a"></use><use xlink:href="#b" x="14.996" y="0"></use><use xlink:href="#1" y="0"></use></svg><svg x="1280"><use xlink:href="#a"></use><use xlink:href="#b" x="-0.0040000000000000036" y="2.146"></use><use xlink:href="#1" y="0"></use></svg><svg x="1360"><use xlink:href="#a"></use><use xlink:href="#b" x="-0.0040000000000000036" y="4.317"></use><use xlink:href="#1" y="0"></use><use xlink:href="#2" y="2.171"></use></svg><svg x="1440"><use xlink:href="#a"></use><use xlink:href="#b" x="1.996" y="4.317"></use><use xlink:href="#1" y="0"></use><use xlink:href="#2" y="2.171"></use><use xlink:href="#2" y="4.342"></use></svg><svg x="1520"><use xlink:href="#a"></use><use xlink:href="#b" x="2.996" y="4.317"></use><use xlink:href="#1" y="0"></use><use xlink:href="#2" y="2.171"></use><text x="0" y="6.012" class="f">&gt;</text><text x="2.004" y="6.012" class="f">g</text></svg><svg x="1600"><use xlink:href="#a"></use><use xlink:href="#b" x="3.996" y="4.317"></use><use xlink:href="#1" y="0"></use><use xlink:href="#2" y="2.171"></use><text x="0" y="6.012" class="f">&gt;</text><text x="2.004" y="6.012" class="f">gh</text></svg><svg x="1680"><use xlink:href="#a"></use><use xlink:href="#b" x="4.996" y="4.317"></use><use xlink:href="#1" y="0"></use><use xlink:href="#2" y="2.171"></use><text x="0" y="6.012" class="f">&gt;</text><text x="2.004" y="6.012" class="f">ghi</text></svg><svg x="1760"><use xlink:href="#a"></use><use xlink:href="#b" x="5.996" y="4.317"></use><use xlink:href="#1" y="0"></use><use xlink:href="#2" y="2.171"></use><text x="0" y="6.012" class="f">&gt;</text><text x="2.004" y="6.012" class="f">ghib</text></svg><svg x="1840"><use xlink:href="#a"></use><use xlink:href="#b" x="6.996" y="4.317"></use><use xlink:href="#1" y="0"></use><use xlink:href="#2" y="2.171"></use><text x="0" y="6.012" class="f">&gt;</text><text x="2.004" y="6.012" class="f">ghibl</text></svg><svg x="1920"><use xlink:href="#a"></use><use xlink:href="#b" x="7.996" y="4.317"></use><use xlink:href="#1" y="0"></use><use xlink:href="#2" y="2.171"></use><text x="0" y="6.012" class="f">&gt;</text><text x="2.004" y="6.012" class="f">ghibli</text></svg><svg x="2000"><use xlink:href="#a"></use><use xlink:href="#b" x="8.996" y="4.317"></use><use xlink:href="#1" y="0"></use><use xlink:href="#2" y="2.171"></use><text x="0" y="6.012" class="f">&gt;</text><text x="2.004" y="6.012" class="f">ghibli_</text></svg><svg x="2080"><use xlink:href="#a"></use><use xlink:href="#b" x="9.996" y="4.317"></use><use xlink:href="#1" y="0"></use><use xlink:href="#2" y="2.171"></use><text x="0" y="6.012" class="f">&gt;</text><text x="2.004" y="6.012" class="f">ghibli_p</text></svg><svg x="2160"><use xlink:href="#a"></use><use xlink:href="#b" x="10.996" y="4.317"></use><use xlink:href="#1" y="0"></use><use xlink:href="#2" y="2.171"></use><text x="0" y="6.012" class="f">&gt;</text><text x="2.004" y="6.012" class="f">ghibli_pa</text></svg><svg x="2240"><use xlink:href="#a"></use><use xlink:href="#b" x="11.996" y="4.317"></use><use xlink:href="#1" y="0"></use><use xlink:href="#2" y="2.171"></use><text x="0" y="6.012" class="f">&gt;</text><text x="2.004" y="6.012" class="f">ghibli_pal</text></svg><svg x="2320"><use xlink:href="#a"></use><use xlink:href="#b" x="12.996" y="4.317"></use><use xlink:href="#1" y="0"></use><use xlink:href="#2" y="2.171"></use><text x="0" y="6.012" class="f">&gt;</text><text x="2.004" y="6.012" class="f">ghibli_pale</text></svg><svg x="2400"><use xlink:href="#a"></use><use xlink:href="#b" x="13.996" y="4.317"></use><use xlink:href="#1" y="0"></use><use xlink:href="#2" y="2.171"></use><text x="0" y="6.012" class="f">&gt;</text><text x="2.004" y="6.012" class="f">ghibli_palet</text></svg><svg x="2480"><use xlink:href="#a"></use><use xlink:href="#b" x="14.996" y="4.317"></use><use xlink:href="#1" y="0"></use><use xlink:href="#2" y="2.171"></use><text x="0" y="6.012" class="f">&gt;</text><text x="2.004" y="6.012" class="f">ghibli_palett</text></svg><svg x="2560"><use xlink:href="#a"></use><use xlink:href="#b" x="15.996" y="4.317"></use><use xlink:href="#1" y="0"></use><use xlink:href="#2" y="2.171"></use><text x="0" y="6.012" class="f">&gt;</text><text x="2.004" y="6.012" class="f">ghibli_palette</text></svg><svg x="2640"><use xlink:href="#a"></use><use xlink:href="#b" x="16.996" y="4.317"></use><use xlink:href="#1" y="0"></use><use xlink:href="#2" y="2.171"></use><text x="0" y="6.012" class="f">&gt;</text><text x="2.004" y="6.012" class="f">ghibli_palettes</text></svg><svg x="2720"><use xlink:href="#a"></use><use xlink:href="#b" x="17.996" y="4.317"></use><use xlink:href="#1" y="0"></use><use xlink:href="#2" y="2.171"></use><text x="0" y="6.012" class="f">&gt;</text><text x="2.004" y="6.012" class="f">ghibli_palettes$</text></svg><svg x="2800"><use xlink:href="#a"></use><use xlink:href="#b" x="18.996" y="4.317"></use><use xlink:href="#1" y="0"></use><use xlink:href="#2" y="2.171"></use><text x="0" y="6.012" class="f">&gt;</text><text x="2.004" y="6.012" class="f">ghibli_palettes$M</text></svg><svg x="2880"><use xlink:href="#a"></use><use xlink:href="#b" x="19.996" y="4.317"></use><use xlink:href="#1" y="0"></use><use xlink:href="#2" y="2.171"></use><text x="0" y="6.012" class="f">&gt;</text><text x="2.004" y="6.012" class="f">ghibli_palettes$Ma</text></svg><svg x="2960"><use xlink:href="#a"></use><use xlink:href="#b" x="20.996" y="4.317"></use><use xlink:href="#1" y="0"></use><use xlink:href="#2" y="2.171"></use><text x="0" y="6.012" class="f">&gt;</text><text x="2.004" y="6.012" class="f">ghibli_palettes$Mar</text></svg><svg x="3040"><use xlink:href="#a"></use><use xlink:href="#b" x="21.996" y="4.317"></use><use xlink:href="#1" y="0"></use><use xlink:href="#2" y="2.171"></use><text x="0" y="6.012" class="f">&gt;</text><text x="2.004" y="6.012" class="f">ghibli_palettes$Marn</text></svg><svg x="3120"><use xlink:href="#a"></use><use xlink:href="#b" x="22.996" y="4.317"></use><use xlink:href="#1" y="0"></use><use xlink:href="#2" y="2.171"></use><text x="0" y="6.012" class="f">&gt;</text><text x="2.004" y="6.012" class="f">ghibli_palettes$Marni</text></svg><svg x="3200"><use xlink:href="#a"></use><use xlink:href="#b" x="23.996" y="4.317"></use><use xlink:href="#1" y="0"></use><use xlink:href="#2" y="2.171"></use><text x="0" y="6.012" class="f">&gt;</text><text x="2.004" y="6.012" class="f">ghibli_palettes$Marnie</text></svg><svg x="3280"><use xlink:href="#a"></use><use xlink:href="#b" x="24.996" y="4.317"></use><use xlink:href="#1" y="0"></use><use xlink:href="#2" y="2.171"></use><text x="0" y="6.012" class="f">&gt;</text><text x="2.004" y="6.012" class="f">ghibli_palettes$MarnieM</text></svg><svg x="3360"><use xlink:href="#a"></use><use xlink:href="#b" x="25.996" y="4.317"></use><use xlink:href="#1" y="0"></use><use xlink:href="#2" y="2.171"></use><text x="0" y="6.012" class="f">&gt;</text><text x="2.004" y="6.012" class="f">ghibli_palettes$MarnieMe</text></svg><svg x="3440"><use xlink:href="#a"></use><use xlink:href="#b" x="26.996" y="4.317"></use><use xlink:href="#1" y="0"></use><use xlink:href="#2" y="2.171"></use><text x="0" y="6.012" class="f">&gt;</text><text x="2.004" y="6.012" class="f">ghibli_palettes$MarnieMed</text></svg><svg x="3520"><use xlink:href="#a"></use><use xlink:href="#b" x="27.996" y="4.317"></use><use xlink:href="#1" y="0"></use><use xlink:href="#2" y="2.171"></use><text x="0" y="6.012" class="f">&gt;</text><text x="2.004" y="6.012" class="f">ghibli_palettes$MarnieMedi</text></svg><svg x="3600"><use xlink:href="#a"></use><use xlink:href="#b" x="28.996" y="4.317"></use><use xlink:href="#1" y="0"></use><use xlink:href="#2" y="2.171"></use><text x="0" y="6.012" class="f">&gt;</text><text x="2.004" y="6.012" class="f">ghibli_palettes$MarnieMediu</text></svg><svg x="3680"><use xlink:href="#a"></use><use xlink:href="#b" x="29.996" y="4.317"></use><use xlink:href="#1" y="0"></use><use xlink:href="#2" y="2.171"></use><text x="0" y="6.012" class="f">&gt;</text><text x="2.004" y="6.012" class="f">ghibli_palettes$MarnieMedium</text></svg><svg x="3760"><use xlink:href="#a"></use><use xlink:href="#b" x="30.996" y="4.317"></use><use xlink:href="#1" y="0"></use><use xlink:href="#2" y="2.171"></use><use xlink:href="#3" y="4.342"></use></svg><svg x="3840"><use xlink:href="#a"></use><use xlink:href="#b" x="-0.0040000000000000036" y="6.4879999999999995"></use><use xlink:href="#1" y="0"></use><use xlink:href="#2" y="2.171"></use><use xlink:href="#3" y="4.342"></use></svg><svg x="3920"><use xlink:href="#a"></use><use xlink:href="#b" x="-0.0040000000000000036" y="8.658999999999999"></use><use xlink:href="#1" y="0"></use><use xlink:href="#2" y="2.171"></use><use xlink:href="#3" y="4.342"></use><use xlink:href="#4" y="6.513"></use></svg><svg x="4000"><use xlink:href="#a"></use><use xlink:href="#b" x="-0.0040000000000000036" y="10.83"></use><use xlink:href="#1" y="0"></use><use xlink:href="#2" y="2.171"></use><use xlink:href="#3" y="4.342"></use><use xlink:href="#4" y="6.513"></use><use xlink:href="#5" y="8.684"></use></svg><svg x="4080"><use xlink:href="#a"></use><use xlink:href="#b" x="-0.0040000000000000036" y="10.83"></use><use xlink:href="#1" y="0"></use><use xlink:href="#2" y="2.171"></use><use xlink:href="#3" y="4.342"></use><use xlink:href="#4" y="6.513"></use><use xlink:href="#5" y="8.684"></use></svg></svg></g></g></svg></svg>